<svg xmlns="http://www.w3.org/2000/svg" xmlns:xlink="http://www.w3.org/1999/xlink" aria-hidden="true" role="img" class="iconify iconify--logos" width="31.88" height="32" preserveAspectRatio="xMidYMid meet" viewBox="0 0 256 257"><defs><linearGradient id="IconifyId1813088fe1fbc01fb466" x1="-.828%" x2="57.636%" y1="7.652%" y2="78.411%"><stop offset="0%" stop-color="#41D1FF"></stop><stop offset="100%" stop-color="#BD34FE"></stop></linearGradient><linearGradient id="IconifyId1813088fe1fbc01fb467" x1="43.376%" x2="50.316%" y1="2.242%" y2="89.03%"><stop offset="0%" stop-color="#FFBD4F"></stop><stop offset="100%" stop-color="#FF980E"></stop></linearGradient></defs><path fill="url(#IconifyId1813088fe1fbc01fb466)" d="M255.153 37.938L134.897 252.976c-2.483 4.44-8.862 4.466-11.382.048L.875 37.958c-2.746-4.814 1.371-10.646 6.827-9.67l120.385 21.517a6.537 6.537 0 0 0 2.322-.004l117.867-21.483c5.438-.991 9.574 4.796 6.877 9.62Z"></path><path fill="url(#IconifyId1813088fe1fbc01fb467)" d="M185.432.063L96.44 17.501a3.268 3.268 0 0 0-2.634 3.014l-5.474 92.456a3.268 3.268 0 0 0 3.997 3.378l24.777-5.718c2.318-.535 4.413 1.422 4.18 3.838l-7.361 60.44c-.245 2.01 1.704 3.668 3.703 3.256l22.302-4.028c2.006-.418 3.892 1.24 3.652 3.26l-10.08 79.637c-.295 2.33 1.725 4.412 4.064 4.2l29.406-3.36c2.322-.272 4.256 1.657 4.2 3.99l-.233 17.75c-.054 4.12 4.408 7.055 8.303 5.31l122.64-58.626c3.96-1.893 3.96-7.586 0-9.479l-122.64-58.626c-3.895-1.862-8.357.873-8.303 5.31l.233 17.75c.056 2.333-1.878 4.262-4.2 3.99l-29.406-3.36c-2.339-.212-4.359 1.87-4.064 4.2l10.08 79.637c.24 2.02-1.646 3.678-3.652 3.26l-22.302-4.028c-1.999-.412-3.948 1.246-3.703 3.256l7.361 60.44c.233 2.416-1.862 4.373-4.18 3.838l-24.777-5.718c-2.713-.626-4.231 2.642-2.634 3.014l96.44 17.44c2.906.526 5.634-1.528 5.634-4.54V4.602c0-2.98-2.728-5.055-5.568-4.54Z"></path></svg>
